<svg xmlns="http://www.w3.org/2000/svg" width="4000" height="4000" viewBox="0 0 4000 4000">
  <defs>
    <style>
      .cls-1 {
        fill: #fff;
        fill-rule: evenodd;
      }
    </style>
  </defs>
  <path id="Forma_1" data-name="Forma 1" class="cls-1" d="M3326.58,4000H3023.24q-457.53-359.46-915.06-718.91l489.38-383.21,292.41,229.62q-82.515-164.865-165.01-329.72,242.175-190.095,484.33-380.19Q3605.14,3208.8,4001,4000H3326.58Zm-2650.15,0q-337.708,0-675.416.01l0-.01H1q78.868-157.74,157.735-315.47c0.009-.01.019-0.01,0.028-0.02L1663.29,675.447V675.43c0.04-.081.09-0.161,0.13-0.241L2001.01,0.007q12.4,24.822,24.79,49.619,324.81,649.1,649.62,1298.2-242.67,190.59-485.34,381.19-94.545-189.1-189.1-378.21-364.935,729.87-729.87,1459.89,766.365-602.01,1532.72-1204.03,138.015,276.045,276.04,552.08Q1906.96,3079.375,734.064,4000H676.43Z"/>
</svg>
